<?xml version="1.0" standalone="no"?>
<!DOCTYPE svg PUBLIC "-//W3C//DTD SVG 1.1//EN" "http://www.w3.org/Graphics/SVG/1.1/DTD/svg11.dtd" >
<svg xmlns="http://www.w3.org/2000/svg" xmlns:xlink="http://www.w3.org/1999/xlink" version="1.1">
<metadata></metadata>
<defs>
<font id="rama_gothic_esemibold" horiz-adv-x="772" >
<font-face units-per-em="2048" ascent="1638" descent="-410" />
<missing-glyph horiz-adv-x="395" />
<glyph unicode="&#xfb01;" horiz-adv-x="876" d="M27 883v178h90v143q0 132 59.5 192t188.5 60q79 0 143 -22v-168q-36 16 -92 16q-48 0 -70 -25.5t-22 -85.5v-110h184v-178h-184v-883h-207v883h-90zM584 0v1061h209v-1061h-209zM584 1221v213h209v-213h-209z" />
<glyph unicode="&#xfb02;" horiz-adv-x="876" d="M27 883v178h90v143q0 132 59.5 192t188.5 60q79 0 143 -22v-168q-36 16 -92 16q-48 0 -70 -25.5t-22 -85.5v-110h184v-178h-184v-883h-207v883h-90zM584 0v1434h209v-1434h-209z" />
<glyph horiz-adv-x="0" />
<glyph horiz-adv-x="682" />
<glyph unicode=" "  horiz-adv-x="395" />
<glyph unicode="&#x09;" horiz-adv-x="395" />
<glyph unicode="&#xa0;" horiz-adv-x="395" />
<glyph unicode="!" horiz-adv-x="413" d="M88 920v514h236v-514l-52 -562h-131zM96 0v242h223v-242h-223z" />
<glyph unicode="&#x22;" horiz-adv-x="727" d="M90 1198v236h207v-236l-31 -473h-143zM430 1198v236h207v-236l-31 -473h-143z" />
<glyph unicode="#" d="M10 360l17 166h108l41 381h-106l16 166h107l38 361h150l-39 -361h162l39 361h147l-37 -361h109l-17 -166h-110l-39 -381h109l-19 -166h-108l-37 -360h-148l37 360h-162l-37 -360h-149l37 360h-109zM285 526h161l39 381h-161z" />
<glyph unicode="$" d="M49 365v159h211v-190q0 -70 28 -102.5t89 -32.5t88 32.5t27 102.5v26q0 63 -24.5 113.5t-63.5 86.5t-86.5 70t-94.5 74t-86 88.5t-63.5 124t-24.5 170.5v7q0 156 75 240.5t220 95.5v102h80v-102q144 -9 220.5 -99.5t76.5 -261.5v-145h-211v174q0 137 -117 137 q-62 0 -89.5 -33.5t-27.5 -103.5v-6q0 -63 24.5 -114t64 -87t86.5 -70t94.5 -74.5t87 -88.5t64 -123.5t24.5 -169.5v-27q0 -157 -75.5 -242t-221.5 -96v-98h-80v100q-295 19 -295 363z" />
<glyph unicode="%" horiz-adv-x="1349" d="M55 729v494q0 119 61.5 176t168.5 57t168 -57t61 -176v-494q0 -121 -61 -178t-168 -57t-168.5 57t-61.5 178zM213 717q0 -86 72 -86q71 0 71 86v518q0 86 -71 86q-72 0 -72 -86v-518zM295 0l612 1434h148l-613 -1434h-147zM836 213v494q0 119 61 176t168 57t168 -57 t61 -176v-494q0 -121 -61 -178.5t-168 -57.5t-168 57.5t-61 178.5zM993 201q0 -86 72 -86t72 86v518q0 86 -72 86t-72 -86v-518z" />
<glyph unicode="&#x26;" horiz-adv-x="1034" d="M31 528q0 186 202 306l46 26l-5 12q-79 185 -79 320q0 68 28.5 126.5t93 98t154.5 39.5q135 0 198.5 -69t63.5 -183q0 -107 -45.5 -189.5t-142.5 -154.5q108 -249 152 -360t59 -176q45 102 45 266v268h180v-244q0 -274 -109 -436q30 -18 72 -18q44 0 72 14v-174 q-52 -18 -123 -18q-117 0 -188 45q-103 -50 -220 -50q-47 0 -80 3t-73 15.5t-70.5 35.5t-62 63.5t-58.5 98.5l-53 114q-57 123 -57 221zM250 575q0 -62 35 -133l82 -172q32 -69 66.5 -93.5t76.5 -24.5q47 0 88 14l-256 555l-16 -12q-76 -54 -76 -134zM422 1210q0 -34 9 -69 t25.5 -79t22.5 -65q96 84 96 205q0 113 -77 113q-76 0 -76 -105z" />
<glyph unicode="'" horiz-adv-x="387" d="M90 1198v236h207v-236l-31 -473h-143z" />
<glyph unicode="(" horiz-adv-x="487" d="M66 184v879q0 103 26 177.5t74 115.5t106 59.5t131 18.5h84v-158h-51q-88 0 -121.5 -42t-33.5 -142v-936q0 -100 34 -142.5t121 -42.5h51v-157h-84q-337 0 -337 370z" />
<glyph unicode=")" horiz-adv-x="487" d="M0 -29h51q88 0 122 42.5t34 142.5v936q0 100 -34 142t-122 42h-51v158h84q73 0 131 -18.5t106 -59.5t74.5 -115.5t26.5 -177.5v-879q0 -370 -338 -370h-84v157z" />
<glyph unicode="*" horiz-adv-x="823" d="M2 854l293 150l-293 149l74 131l274 -180l-14 330h149l-16 -330l276 180l76 -131l-293 -149l293 -150l-76 -131l-276 178l16 -328h-149l14 328l-274 -178z" />
<glyph unicode="+" d="M66 629v174h233v274h174v-274h234v-174h-234v-277h-174v277h-233z" />
<glyph unicode="," horiz-adv-x="387" d="M78 -207l119 207h-109v311h209v-311l-201 -221z" />
<glyph unicode="-" horiz-adv-x="581" d="M59 438v180h463v-180h-463z" />
<glyph unicode="." horiz-adv-x="387" d="M88 0v311h209v-311h-209z" />
<glyph unicode="/" horiz-adv-x="714" d="M12 0l480 1434h208l-479 -1434h-209z" />
<glyph unicode="0" d="M66 315v803q0 338 321 338q320 0 320 -338v-803q0 -338 -320 -338q-321 0 -321 338zM272 287q0 -66 27.5 -98.5t87.5 -32.5q113 0 113 131v860q0 131 -113 131q-60 0 -87.5 -32.5t-27.5 -98.5v-860z" />
<glyph unicode="1" horiz-adv-x="475" d="M41 1157v178h100q107 0 121 99h111v-1434h-209v1157h-123z" />
<glyph unicode="2" horiz-adv-x="745" d="M55 0v193q0 99 24 182.5t62 142.5t84.5 111t93 99t84.5 96t62 113.5t24 139.5v64q0 137 -112 137q-115 0 -115 -137v-246h-192v217q0 173 80 258.5t233 85.5q154 0 234.5 -85.5t80.5 -258.5v-25q0 -96 -24 -177.5t-62.5 -139.5t-85 -109.5t-93 -98.5t-85 -96t-62.5 -113 t-24 -138v-8h424v-207h-631z" />
<glyph unicode="3" horiz-adv-x="737" d="M55 319v201h193v-227q0 -137 112 -137q115 0 115 137v229q0 69 -27 103t-88 34h-112v179h112q61 0 88 34.5t27 102.5v166q0 137 -115 137q-112 0 -112 -137v-164h-193v139q0 340 314 340q313 0 313 -340v-86q0 -122 -38 -189.5t-116 -92.5q78 -25 116 -92t38 -189v-148 q0 -342 -313 -342q-153 0 -233.5 85t-80.5 257z" />
<glyph unicode="4" horiz-adv-x="763" d="M39 276v173l375 985h225v-953h90v-205h-90v-276h-209v276h-391zM233 481h197v236q0 247 27 465q-44 -186 -123 -412z" />
<glyph unicode="5" horiz-adv-x="770" d="M78 322v188h192v-217q0 -137 113 -137q115 0 115 137v457q0 73 -25.5 102t-77.5 29q-55 0 -90 -41.5t-35 -102.5v-82h-192v779h612v-207h-420v-297q29 60 82.5 95.5t124.5 35.5q228 0 228 -297v-442q0 -173 -80.5 -259t-233.5 -86q-313 0 -313 345z" />
<glyph unicode="6" horiz-adv-x="761" d="M66 315v797q0 344 313 344q153 0 233 -85.5t80 -258.5v-51h-192v80q0 137 -113 137q-115 0 -115 -137v-316q29 60 83 95.5t126 35.5q226 0 226 -297v-344q0 -338 -320 -338q-321 0 -321 338zM272 287q0 -66 27.5 -98.5t87.5 -32.5q113 0 113 131v358q0 73 -25.5 102 t-77.5 29q-54 0 -89.5 -41.5t-35.5 -101.5v-346z" />
<glyph unicode="7" horiz-adv-x="702" d="M47 0l424 1227h-424v207h627v-166l-398 -1268h-229z" />
<glyph unicode="8" horiz-adv-x="753" d="M55 307v160q0 221 146 283q-79 32 -112.5 102t-33.5 178v96q0 171 81.5 250.5t240.5 79.5t240 -79.5t81 -250.5v-96q0 -108 -33 -178t-114 -102q80 -33 113.5 -104.5t33.5 -178.5v-160q0 -171 -81 -250.5t-240 -79.5t-240.5 79.5t-81.5 250.5zM262 287q0 -131 115 -131 q59 0 85.5 32.5t26.5 98.5v229q0 76 -24 109.5t-88 33.5q-66 0 -90.5 -33t-24.5 -110v-229zM262 981q0 -76 25 -109.5t90 -33.5q64 0 88 34t24 109v164q0 67 -26.5 100t-85.5 33q-115 0 -115 -133v-164z" />
<glyph unicode="9" horiz-adv-x="761" d="M55 795v323q0 338 322 338q321 0 321 -338v-796q0 -173 -80.5 -259t-234.5 -86q-153 0 -233 86t-80 259v71h192v-100q0 -137 115 -137q112 0 112 137v334q-29 -59 -82 -94t-124 -35q-228 0 -228 297zM262 809q0 -73 25.5 -102t77.5 -29q55 0 89.5 41t34.5 102v326 q0 66 -26.5 98.5t-85.5 32.5q-115 0 -115 -131v-338z" />
<glyph unicode=":" horiz-adv-x="387" d="M88 0v311h209v-311h-209zM88 705v311h209v-311h-209z" />
<glyph unicode=";" horiz-adv-x="387" d="M78 -207l119 207h-109v311h209v-311l-201 -221zM88 705v311h209v-311h-209z" />
<glyph unicode="&#x3c;" d="M66 631v170l641 301v-182l-447 -201l447 -203v-186z" />
<glyph unicode="=" d="M66 449v174h641v-174h-641zM66 811v174h641v-174h-641z" />
<glyph unicode="&#x3e;" d="M66 330v186l446 203l-446 201v182l641 -301v-170z" />
<glyph unicode="?" horiz-adv-x="694" d="M33 895v217q0 344 313 344q154 0 235 -85.5t81 -258.5v-51q0 -76 -15 -136.5t-39 -99t-53 -71.5t-57.5 -64t-52.5 -65t-39 -86t-15 -117v-64h-131v107q0 106 20 179t48 113t56.5 77t48.5 95.5t20 143.5v68q0 137 -113 137q-115 0 -115 -137v-246h-192zM221 0v256h207 v-256h-207z" />
<glyph unicode="@" horiz-adv-x="1253" d="M66 717q0 89 6 164t23 152.5t43.5 138.5t70 115.5t101 90.5t138 57t179.5 21t179.5 -21t138 -57t101 -90.5t70 -115.5t43.5 -138.5t23 -152.5t6 -164t-6 -164t-23 -152.5t-43.5 -138.5t-70 -115.5t-101 -91t-138 -57.5t-179.5 -21t-179.5 21t-138 57.5t-101 91t-70 115.5 t-43.5 138.5t-23 152.5t-6 164zM186 717q0 -79 4 -142t16 -130t32 -118t54 -97.5t79.5 -76.5t110 -47.5t145.5 -17.5t145.5 17.5t110 47.5t79 76.5t53.5 97.5t32 118t16 130t4 142t-4 142t-16 130t-32 118t-53.5 97.5t-79 76.5t-110 47.5t-145.5 17.5t-145.5 -17.5 t-110 -47.5t-79.5 -76.5t-54 -97.5t-32 -118t-16 -130t-4 -142zM393 475v35q0 69 22 120.5t54.5 77.5t71 48t71 35.5t54.5 36t22 53.5v59q0 88 -70 88q-71 0 -71 -88v-104h-137v88q0 124 52.5 181.5t162.5 57.5t161.5 -58t51.5 -181v-414q0 -85 4 -125.5t16 -99.5h-137 q-17 31 -23 94q-16 -48 -55 -78.5t-92 -30.5q-158 0 -158 205zM543 492q0 -49 17 -67.5t50 -18.5t55.5 25.5t22.5 62.5v215q-6 -4 -33 -19.5t-36 -21.5t-28 -22t-26.5 -29t-14.5 -34t-7 -46v-45z" />
<glyph unicode="A" horiz-adv-x="831" d="M14 0l248 1434h301l248 -1434h-236l-36 211h-275l-35 -211h-215zM297 408h209l-41 251q-47 307 -64 498q-18 -206 -63 -498z" />
<glyph unicode="B" horiz-adv-x="854" d="M90 0v1434h350q62 0 107 -6t92.5 -26t77 -55.5t48.5 -97t19 -147.5v-84q0 -123 -34 -188.5t-103 -92.5q150 -60 150 -278v-121q0 -86 -20 -148.5t-52 -98.5t-81 -57t-95.5 -27.5t-108.5 -6.5h-350zM326 205h94q78 0 109.5 32.5t31.5 110.5v160q0 78 -31.5 108.5 t-109.5 30.5h-94v-442zM326 852h94q79 0 110 30t31 107v101q0 78 -31.5 108.5t-109.5 30.5h-94v-377z" />
<glyph unicode="C" horiz-adv-x="821" d="M66 356v721q0 379 348 379t348 -379v-182h-217v215q0 71 -29.5 106t-93.5 35t-92.5 -34.5t-28.5 -106.5v-786q0 -72 29 -107t92 -35q64 0 93.5 35t29.5 107v258h217v-226q0 -379 -348 -379t-348 379z" />
<glyph unicode="D" horiz-adv-x="870" d="M90 0v1434h334q371 0 371 -357v-721q0 -85 -21.5 -150t-55.5 -103.5t-84 -62t-100 -32t-110 -8.5h-334zM326 205h88q78 0 111.5 33t33.5 112v733q0 79 -33.5 112.5t-111.5 33.5h-88v-1024z" />
<glyph unicode="E" horiz-adv-x="698" d="M90 0v1434h553v-205h-317v-379h276v-207h-276v-438h327v-205h-563z" />
<glyph unicode="F" horiz-adv-x="645" d="M90 0v1434h539v-205h-303v-408h262v-207h-262v-614h-236z" />
<glyph unicode="G" horiz-adv-x="833" d="M66 356v721q0 379 348 379t348 -379v-127h-217v160q0 71 -29.5 106t-93.5 35t-92.5 -34.5t-28.5 -106.5v-786q0 -72 29 -107t92 -35q64 0 93.5 35t29.5 107v299h-123v188h348v-811h-123l-22 119q-62 -142 -256 -142q-303 0 -303 379z" />
<glyph unicode="H" horiz-adv-x="894" d="M90 0v1434h236v-584h243v584h236v-1434h-236v643h-243v-643h-236z" />
<glyph unicode="I" horiz-adv-x="409" d="M88 0v1434h236v-1434h-236z" />
<glyph unicode="J" horiz-adv-x="794" d="M18 336v246h218v-265q0 -70 29 -102.5t93 -32.5t92.5 32.5t28.5 102.5v1117h236v-1098q0 -359 -348 -359q-349 0 -349 359z" />
<glyph unicode="K" horiz-adv-x="868" d="M90 0v1434h236v-678q44 120 155 372l142 306h227l-268 -605l276 -829h-242l-186 586l-104 -203v-383h-236z" />
<glyph unicode="L" horiz-adv-x="630" d="M90 0v1434h236v-1229h303v-205h-539z" />
<glyph unicode="M" horiz-adv-x="1191" d="M88 0v1434h330l119 -592q45 -227 57 -381q15 158 59 381l119 592h328v-1434h-230v684q0 156 15 449q-33 -223 -74 -447l-141 -686h-185l-141 686q-41 224 -74 447q15 -293 15 -449v-684h-197z" />
<glyph unicode="N" horiz-adv-x="927" d="M88 0v1434h309l181 -629q11 -44 77 -330q-12 300 -12 332v627h197v-1434h-277l-211 750q-14 51 -41.5 168t-38.5 159q15 -245 15 -332v-745h-199z" />
<glyph unicode="O" horiz-adv-x="843" d="M66 356v721q0 379 356 379q358 0 358 -379v-721q0 -379 -358 -379q-356 0 -356 379zM301 324q0 -72 29 -107t92 -35q64 0 93.5 35t29.5 107v786q0 71 -29.5 106t-93.5 35t-92.5 -34.5t-28.5 -106.5v-786z" />
<glyph unicode="P" horiz-adv-x="823" d="M90 0v1434h330q371 0 371 -357v-233q0 -359 -371 -359h-94v-485h-236zM326 692h84q78 0 111.5 33t33.5 111v247q0 79 -33.5 112.5t-111.5 33.5h-84v-537z" />
<glyph unicode="Q" horiz-adv-x="866" d="M66 356v721q0 379 356 379q358 0 358 -379v-827q0 -34 9 -48t34 -14q17 0 35 9v-203q-31 -17 -76 -17q-107 0 -149 82q-79 -82 -234 -82q-333 0 -333 379zM301 324q0 -72 29 -107t92 -35q123 0 123 142v786q0 71 -29.5 106t-93.5 35t-92.5 -34.5t-28.5 -106.5v-786z" />
<glyph unicode="R" horiz-adv-x="870" d="M90 0v1434h350q62 0 108.5 -6t96 -26t80.5 -55t51.5 -97t20.5 -148v-107q0 -227 -160 -284q76 -30 118 -100t42 -197v-43q0 -124 8 -199t17.5 -104t29.5 -68h-254q-37 114 -37 293v106q0 122 -38 165.5t-140 43.5h-57v-608h-236zM326 815h94q79 0 110 30t31 107v138 q0 78 -31.5 108.5t-109.5 30.5h-94v-414z" />
<glyph unicode="S" horiz-adv-x="792" d="M53 356v146h219v-178q0 -72 26.5 -107t88.5 -35q63 0 90 34.5t27 107.5v30q0 64 -25 115t-64.5 87.5t-87.5 71t-96.5 76t-88 91.5t-64.5 128.5t-25 176.5v4q0 352 344 352q170 0 256 -92.5t86 -286.5v-108h-219v141q0 72 -26 106.5t-88 34.5q-63 0 -90 -34.5t-27 -106.5 v-12q0 -64 25 -115.5t64.5 -88t87.5 -71.5t96 -76t87.5 -91t64.5 -128t25 -176v-24q0 -351 -344 -351q-342 0 -342 379z" />
<glyph unicode="T" horiz-adv-x="669" d="M0 1229v205h670v-205h-217v-1229h-236v1229h-217z" />
<glyph unicode="U" horiz-adv-x="851" d="M78 336v1098h235v-1117q0 -69 29.5 -102t93.5 -33q63 0 92 33t29 102v1117h219v-1098q0 -359 -348 -359q-350 0 -350 359z" />
<glyph unicode="V" horiz-adv-x="821" d="M18 1434h240l111 -660q36 -232 55 -428q19 196 55 428l109 660h217l-246 -1434h-293z" />
<glyph unicode="W" horiz-adv-x="1257" d="M18 1434h240l82 -574q40 -283 53 -465q13 216 51 467l82 572h234l80 -574q35 -253 51 -465q18 250 51 467l82 572h217l-211 -1434h-280l-82 580q-32 243 -41 393q-22 -253 -41 -393l-80 -580h-277z" />
<glyph unicode="X" horiz-adv-x="813" d="M18 0l224 737l-209 697h239l78 -269q53 -181 68 -276q23 125 67 276l78 269h217l-209 -697l222 -737h-242l-88 313q-52 180 -68 275q-24 -128 -67 -275l-88 -313h-222z" />
<glyph unicode="Y" horiz-adv-x="835" d="M18 1434h242l102 -400q3 -13 16 -62.5t17 -66.5t13 -53.5t14 -65t10 -59.5q11 87 68 307l100 400h221l-282 -965v-469h-236v455z" />
<glyph unicode="Z" horiz-adv-x="702" d="M37 0v152l366 1077h-356v205h619v-154l-367 -1075h367v-205h-629z" />
<glyph unicode="[" horiz-adv-x="514" d="M90 -186v1675h422v-160h-205v-1358h205v-157h-422z" />
<glyph unicode="\" horiz-adv-x="714" d="M14 1434h209l479 -1434h-208z" />
<glyph unicode="]" horiz-adv-x="514" d="M2 -29h205v1358h-205v160h422v-1675h-422v157z" />
<glyph unicode="^" d="M43 778l258 656h170l258 -656h-186l-156 436l-158 -436h-186z" />
<glyph unicode="_" horiz-adv-x="1024" d="M0 -59h1024v-115h-1024v115z" />
<glyph unicode="`" horiz-adv-x="581" d="M121 1423h205l135 -260h-142z" />
<glyph unicode="a" horiz-adv-x="765" d="M49 254v16q0 78 24 138.5t62 96.5t84.5 63.5t93 47t84.5 38t62 45.5t24 63v12q0 133 -106 133q-109 0 -109 -133v-78h-194v52q0 171 77.5 253t233.5 82q154 0 230.5 -82t76.5 -253v-402q0 -223 23 -346h-199q-17 45 -24 129q-24 -68 -80.5 -110t-135.5 -42 q-107 0 -167 63.5t-60 213.5zM256 276q0 -69 25 -95.5t77 -26.5q55 0 90 41.5t35 103.5v223q-14 -7 -51.5 -25t-54.5 -27t-45 -28.5t-41 -38t-24 -48t-11 -64.5v-15z" />
<glyph unicode="b" horiz-adv-x="792" d="M84 0v1434h209v-480q29 58 82.5 93.5t124.5 35.5q227 0 227 -295v-516q0 -295 -227 -295q-81 0 -138.5 44.5t-80.5 115.5l-37 -137h-160zM293 301q0 -62 34.5 -103.5t88.5 -41.5q53 0 77.5 29t24.5 102v487q0 73 -24.5 102t-77.5 29q-54 0 -88.5 -41.5t-34.5 -103.5v-459 z" />
<glyph unicode="c" horiz-adv-x="747" d="M66 315v430q0 338 313 338t313 -338v-86h-192v115q0 131 -113 131q-60 0 -87.5 -32.5t-27.5 -98.5v-487q0 -66 27.5 -98.5t87.5 -32.5q113 0 113 131v135h192v-107q0 -338 -313 -338t-313 338z" />
<glyph unicode="d" horiz-adv-x="792" d="M66 272v516q0 295 227 295q71 0 125.5 -36t83.5 -95v482h207v-1088q0 -137 4.5 -206t19.5 -140h-201q-15 39 -22 127q-26 -67 -83 -108.5t-134 -41.5q-227 0 -227 295zM274 287q0 -72 25 -101.5t78 -29.5q54 0 89.5 41.5t35.5 103.5v459q0 62 -35.5 103.5t-89.5 41.5 q-53 0 -78 -29.5t-25 -101.5v-487z" />
<glyph unicode="e" horiz-adv-x="751" d="M66 315v430q0 338 313 338t313 -338v-276h-420v-182q0 -66 27.5 -98.5t87.5 -32.5q113 0 113 131v69h192v-41q0 -338 -313 -338t-313 338zM272 639h228v135q0 131 -113 131q-60 0 -87.5 -32.5t-27.5 -98.5v-135z" />
<glyph unicode="f" horiz-adv-x="499" d="M27 883v178h90v143q0 132 59.5 192t188.5 60q79 0 143 -22v-168q-36 16 -92 16q-48 0 -70 -25.5t-22 -85.5v-110h184v-178h-184v-883h-207v883h-90z" />
<glyph unicode="g" horiz-adv-x="804" d="M55 643v135q0 168 77 236.5t237 68.5q199 0 268 -108q18 86 98 86q38 0 56 -6v-172q-27 6 -56 6q-39 0 -39 -58v-188q0 -168 -79 -237.5t-242 -69.5q-32 0 -86 4q-31 -16 -31 -59q0 -26 16.5 -44t49.5 -18h194q141 0 207 -61.5t66 -186.5q0 -127 -76 -189.5t-236 -62.5 h-162q-134 0 -195 47.5t-61 143.5q0 105 84 151q-57 46 -57 142q0 120 92 170q-125 66 -125 270zM225 -68q0 -49 27 -70.5t102 -21.5h97q71 0 102 20.5t31 71.5t-25 69.5t-80 18.5h-164q-47 0 -68.5 -25.5t-21.5 -62.5zM262 621q0 -132 113 -132q60 0 86 32.5t26 99.5v180 q0 67 -26 100t-86 33q-113 0 -113 -133v-180z" />
<glyph unicode="h" horiz-adv-x="800" d="M84 0v1434h209v-480q29 58 82.5 93.5t124.5 35.5q227 0 227 -295v-788h-209v774q0 73 -24.5 102t-77.5 29q-52 0 -87.5 -42.5t-35.5 -102.5v-760h-209z" />
<glyph unicode="i" horiz-adv-x="376" d="M84 0v1061h209v-1061h-209zM84 1221v213h209v-213h-209z" />
<glyph unicode="j" horiz-adv-x="376" d="M-20 -100q22 -9 43 -9q34 0 47.5 17.5t13.5 58.5v1094h209v-1106q0 -123 -51.5 -177t-167.5 -54q-50 0 -94 14v162zM84 1221v213h209v-213h-209z" />
<glyph unicode="k" horiz-adv-x="784" d="M84 0v1434h209v-867q53 121 123 244l141 250h199l-240 -443l260 -618h-217l-178 436l-88 -151v-285h-209z" />
<glyph unicode="l" horiz-adv-x="376" d="M84 0v1434h209v-1434h-209z" />
<glyph unicode="m" horiz-adv-x="1208" d="M84 0v1061h195v-141q21 72 77 117.5t138 45.5q78 0 129 -35.5t73 -119.5q24 69 80.5 112t136.5 43q106 0 164 -67.5t58 -227.5v-788h-209v774q0 73 -22.5 102t-74.5 29q-53 0 -84.5 -41t-31.5 -104v-760h-207v774q0 74 -22 102.5t-74 28.5q-53 0 -85 -41t-32 -104v-760 h-209z" />
<glyph unicode="n" horiz-adv-x="800" d="M84 0v1061h195v-143q23 73 80.5 119t140.5 46q227 0 227 -295v-788h-209v774q0 73 -24.5 102t-77.5 29q-54 0 -88.5 -41.5t-34.5 -103.5v-760h-209z" />
<glyph unicode="o" d="M66 315v430q0 338 321 338q320 0 320 -338v-430q0 -338 -320 -338q-321 0 -321 338zM272 287q0 -66 27.5 -98.5t87.5 -32.5q113 0 113 131v487q0 131 -113 131q-60 0 -87.5 -32.5t-27.5 -98.5v-487z" />
<glyph unicode="p" horiz-adv-x="792" d="M84 -258v1319h195v-143q23 73 80.5 119t140.5 46q227 0 227 -295v-516q0 -295 -227 -295q-71 0 -124.5 35t-82.5 94v-364h-209zM293 301q0 -62 34.5 -103.5t88.5 -41.5q53 0 77.5 29t24.5 102v487q0 73 -24.5 102t-77.5 29q-54 0 -88.5 -41.5t-34.5 -103.5v-459z" />
<glyph unicode="q" horiz-adv-x="792" d="M66 272v516q0 295 227 295q81 0 139 -44.5t82 -116.5l35 139h160v-1319h-207v367q-29 -60 -83.5 -96t-125.5 -36q-227 0 -227 295zM274 287q0 -72 25 -101.5t78 -29.5q54 0 89.5 41.5t35.5 103.5v459q0 62 -35.5 103.5t-89.5 41.5q-53 0 -78 -29.5t-25 -101.5v-487z" />
<glyph unicode="r" horiz-adv-x="737" d="M84 0v1061h195v-141q23 73 79.5 118t139.5 45q103 0 155 -64.5t52 -223.5v-277h-193v256q0 73 -23.5 102t-74.5 29q-53 0 -87 -41.5t-34 -103.5v-760h-209z" />
<glyph unicode="s" horiz-adv-x="729" d="M55 299v53h193v-73q0 -136 108 -136q60 0 85.5 31.5t25.5 95.5v19q0 40 -22.5 69t-59 47.5t-80.5 36.5t-88 43t-80.5 59.5t-59 93.5t-22.5 138v4q0 151 81 227t231 76q307 0 307 -321v-41h-193v61q0 136 -108 136q-58 0 -84.5 -32t-26.5 -95v-13q0 -32 14 -56.5t38 -41.5 t55 -32t65 -30t68 -32.5t65 -44t55 -59.5t38 -82.5t14 -110.5v-6q0 -153 -80 -229.5t-229 -76.5q-310 0 -310 322z" />
<glyph unicode="t" horiz-adv-x="493" d="M27 883v178h90v227h207v-227h151v-178h-151v-633q0 -42 17 -61t54 -19q57 0 80 6v-176q-59 -12 -135 -12q-119 0 -171 53t-52 180v662h-90z" />
<glyph unicode="u" horiz-adv-x="800" d="M76 272v789h207v-774q0 -73 24.5 -102t77.5 -29q54 0 89.5 41.5t35.5 103.5v760h207v-715q0 -137 4.5 -206t19.5 -140h-198q-19 49 -25 127q-26 -68 -82 -109t-135 -41q-106 0 -165.5 68t-59.5 227z" />
<glyph unicode="v" horiz-adv-x="731" d="M8 1061h215l99 -492q39 -194 51 -344q25 204 53 344l98 492h197l-227 -1061h-258z" />
<glyph unicode="w" horiz-adv-x="1144" d="M8 1061h215l86 -494q29 -164 39 -317q14 167 41 317l84 494h217l86 -494q27 -172 39 -317q7 111 39 317l86 494h197l-199 -1061h-252l-74 424q-21 124 -41 307q-14 -159 -39 -307l-73 -424h-250z" />
<glyph unicode="x" horiz-adv-x="722" d="M10 0l211 555l-194 506h219l49 -137q52 -145 78 -254q28 116 78 254l49 137h196l-194 -506l213 -555h-221l-70 186q-44 119 -74 244q-21 -101 -74 -244l-69 -186h-197z" />
<glyph unicode="y" horiz-adv-x="731" d="M8 1061h215l99 -492q39 -194 51 -344q25 204 53 344l98 492h197l-242 -1133q-23 -106 -83.5 -155t-192.5 -49q-74 0 -119 10v164q45 -11 82 -11q34 0 52.5 14t27.5 48q2 9 2 22q0 20 -6 49z" />
<glyph unicode="z" horiz-adv-x="659" d="M33 0v156l364 727h-342v178h570v-156l-365 -727h365v-178h-592z" />
<glyph unicode="{" horiz-adv-x="530" d="M0 524v185h51q58 0 78.5 22.5t20.5 85.5q0 52 -17.5 152.5t-17.5 160.5q0 75 18 131t48 89.5t75.5 54t92 28t106.5 7.5h75v-160h-45q-86 0 -120.5 -36.5t-34.5 -121.5q0 -46 17.5 -138.5t17.5 -139.5q0 -183 -119 -228q58 -23 88.5 -76t30.5 -151q0 -47 -17.5 -139.5 t-17.5 -138.5q0 -85 34.5 -121.5t120.5 -36.5h45v-160h-75q-60 0 -106.5 7t-92 27.5t-75.5 54t-48 89.5t-18 131q0 60 17.5 161t17.5 153q0 63 -20.5 85.5t-78.5 22.5h-51z" />
<glyph unicode="|" horiz-adv-x="581" d="M195 -258v1692h192v-1692h-192z" />
<glyph unicode="}" horiz-adv-x="530" d="M0 -47h45q86 0 121 36.5t35 121.5q0 46 -17.5 138.5t-17.5 139.5q0 98 30.5 151t88.5 76q-119 45 -119 228q0 47 17.5 139.5t17.5 138.5q0 85 -35 121.5t-121 36.5h-45v160h76q60 0 106.5 -7.5t92 -28t75.5 -54t48 -89.5t18 -131q0 -60 -17.5 -160.5t-17.5 -152.5 q0 -63 20 -85.5t78 -22.5h51v-185h-51q-58 0 -78 -22.5t-20 -85.5q0 -52 17.5 -153t17.5 -161q0 -75 -18 -131t-48 -89.5t-75.5 -54t-92 -27.5t-106.5 -7h-76v160z" />
<glyph unicode="~" d="M66 590v172q74 82 167 82q55 0 162 -40t158 -40q85 0 154 80v-174q-78 -84 -170 -84q-55 0 -162.5 41t-157.5 41q-84 0 -151 -78z" />
<glyph unicode="&#xa1;" horiz-adv-x="413" d="M90 238l51 561h131l54 -561v-514h-236v514zM94 915v242h223v-242h-223z" />
<glyph unicode="&#xa2;" d="M72 506v422q0 320 274 338v129h80v-129q272 -19 272 -338v-82h-192v110q0 134 -113 134q-114 0 -114 -134v-479q0 -133 114 -133q113 0 113 133v131h192v-102q0 -318 -272 -340v-127h-80v127q-274 22 -274 340z" />
<glyph unicode="&#xa3;" d="M47 0v182q99 28 147.5 84t57.5 152h-178v143h170q-13 53 -47 117t-64.5 113.5t-55 131.5t-24.5 175v35q0 157 87 240t249 83q166 0 250 -87.5t84 -272.5v-191h-209v219q0 133 -115 133q-62 0 -90 -32.5t-28 -100.5v-34q0 -81 19.5 -152t43.5 -117t48 -115.5t32 -144.5 h229v-143h-231q-21 -139 -137 -211h436v-207h-674z" />
<glyph unicode="&#xa4;" d="M41 455l123 112q-49 68 -49 150q0 81 49 149l-123 111l84 84l111 -123q65 49 151 49q84 0 152 -49l108 123l84 -84l-123 -111q49 -68 49 -149q0 -82 -49 -150l123 -112l-84 -82l-108 123q-69 -50 -152 -50q-85 0 -151 50l-111 -123zM225 717q0 -71 46 -117.5t116 -46.5 q69 0 114.5 46.5t45.5 117.5t-45.5 117.5t-114.5 46.5q-70 0 -116 -46.5t-46 -117.5z" />
<glyph unicode="&#xa5;" d="M25 1434h211l100 -400q36 -139 61 -307q16 145 58 307l100 400h190l-231 -871h199v-96h-224v-141h224v-97h-224v-229h-206v229h-226v97h226v141h-226v96h197z" />
<glyph unicode="&#xa6;" horiz-adv-x="581" d="M195 -258v711h192v-711h-192zM195 723v711h192v-711h-192z" />
<glyph unicode="&#xa7;" horiz-adv-x="780" d="M53 676v2q0 163 119 229q-117 98 -117 248v8q0 140 89.5 216.5t244.5 76.5q158 0 246 -79t88 -230v-107h-209v119q0 135 -117 135q-116 0 -116 -120v-13q0 -49 24.5 -86.5t64 -62.5t87 -48.5t95 -51.5t87 -63.5t64 -92t24.5 -129.5v-2q0 -163 -121 -230 q119 -100 119 -248v-6q0 -141 -89 -218t-245 -77q-158 0 -246 79.5t-88 230.5v106h209v-119q0 -135 117 -135q59 0 88 32.5t29 88.5v14q0 38 -15.5 69.5t-41 53.5t-59 42t-71 38.5t-74.5 38.5t-70.5 47t-59 59.5t-41 80t-15.5 104.5zM215 721q0 -31 13 -58.5t32 -47 t51 -41.5t59.5 -36t70 -36.5t69.5 -38.5q55 39 55 119q0 31 -13 58t-32 47t-52 42t-60 36.5t-70.5 37t-69.5 37.5q-53 -35 -53 -117v-2z" />
<glyph unicode="&#xa8;" horiz-adv-x="581" d="M45 1186v207h188v-207h-188zM348 1186v207h191v-207h-191z" />
<glyph unicode="&#xa9;" horiz-adv-x="1253" d="M66 717q0 89 6 164t23 152.5t43.5 138.5t70 115.5t101 90.5t138 57t179.5 21t179.5 -21t138 -57t101 -90.5t70 -115.5t43.5 -138.5t23 -152.5t6 -164t-6 -164t-23 -152.5t-43.5 -138.5t-70 -115.5t-101 -91t-138 -57.5t-179.5 -21t-179.5 21t-138 57.5t-101 91t-70 115.5 t-43.5 138.5t-23 152.5t-6 164zM186 717q0 -79 4 -142t16 -130t32 -118t54 -97.5t79.5 -76.5t110 -47.5t145.5 -17.5t145.5 17.5t110 47.5t79 76.5t53.5 97.5t32 118t16 130t4 142t-4 142t-16 130t-32 118t-53.5 97.5t-79 76.5t-110 47.5t-145.5 17.5t-145.5 -17.5 t-110 -47.5t-79.5 -76.5t-54 -97.5t-32 -118t-16 -130t-4 -142zM414 500v426q0 233 211 233q209 0 209 -233v-99h-138v115q0 44 -15.5 65t-51.5 21q-66 0 -66 -86v-459q0 -45 15.5 -65.5t50.5 -20.5q36 0 51.5 20.5t15.5 65.5v113h138v-96q0 -236 -209 -236q-211 0 -211 236 z" />
<glyph unicode="&#xaa;" horiz-adv-x="567" d="M45 426v162h473v-162h-473zM45 883v10q0 62 22.5 108.5t56.5 71.5t73.5 45.5t73.5 33t56.5 32.5t22.5 45v4q0 88 -71 88q-70 0 -70 -88v-43h-146v27q0 123 55 181t169 58q111 0 166 -58t55 -181v-295q0 -128 18 -226h-143q-16 24 -23 99q-16 -49 -56.5 -81t-94.5 -32 q-164 0 -164 201zM205 903q0 -49 17 -67.5t50 -18.5t55.5 25.5t22.5 62.5v162q-6 -3 -29 -15t-30.5 -17t-25.5 -16.5t-25 -20.5t-17.5 -23t-14 -29.5t-3.5 -34.5v-8z" />
<glyph unicode="&#xab;" horiz-adv-x="856" d="M20 530l250 531h205l-250 -531l250 -530h-205zM381 530l250 531h205l-250 -531l250 -530h-205z" />
<glyph unicode="&#xac;" d="M66 629v174h641v-451h-175v277h-466z" />
<glyph unicode="&#xad;" horiz-adv-x="581" d="M59 438v180h463v-180h-463z" />
<glyph unicode="&#xae;" horiz-adv-x="1253" d="M66 717q0 89 6 164t23 152.5t43.5 138.5t70 115.5t101 90.5t138 57t179.5 21t179.5 -21t138 -57t101 -90.5t70 -115.5t43.5 -138.5t23 -152.5t6 -164t-6 -164t-23 -152.5t-43.5 -138.5t-70 -115.5t-101 -91t-138 -57.5t-179.5 -21t-179.5 21t-138 57.5t-101 91t-70 115.5 t-43.5 138.5t-23 152.5t-6 164zM186 717q0 -79 4 -142t16 -130t32 -118t54 -97.5t79.5 -76.5t110 -47.5t145.5 -17.5t145.5 17.5t110 47.5t79 76.5t53.5 97.5t32 118t16 130t4 142t-4 142t-16 130t-32 118t-53.5 97.5t-79 76.5t-110 47.5t-145.5 17.5t-145.5 -17.5 t-110 -47.5t-79.5 -76.5t-54 -97.5t-32 -118t-16 -130t-4 -142zM410 285v856h229q98 0 156.5 -44.5t58.5 -158.5v-57q0 -143 -98 -174q98 -36 98 -177v-8q0 -91 5 -138t11 -60.5t23 -38.5h-164q-24 58 -24 184v63q0 111 -89 111h-57v-358h-149zM559 774h72q41 0 57.5 19 t16.5 63v80q0 39 -17.5 56.5t-56.5 17.5h-72v-236z" />
<glyph unicode="&#xaf;" horiz-adv-x="581" d="M43 1202v144h498v-144h-498z" />
<glyph unicode="&#xb0;" horiz-adv-x="606" d="M41 1153q0 110 76.5 185t185.5 75t185.5 -75t76.5 -185q0 -109 -76.5 -184.5t-185.5 -75.5t-185.5 75.5t-76.5 184.5zM186 1153q0 -51 33.5 -84t83.5 -33q51 0 84 33t33 84q0 52 -33 84.5t-84 32.5q-50 0 -83.5 -32.5t-33.5 -84.5z" />
<glyph unicode="&#xb1;" d="M66 293v172h233v225h-233v172h233v277h174v-277h234v-172h-234v-225h234v-172h-641z" />
<glyph unicode="&#xb2;" horiz-adv-x="569" d="M68 700v115q0 61 16 114.5t41 92.5t55.5 74t61 68t55.5 66t41 76t16 91v18q0 90 -71 90q-37 0 -53.5 -22t-16.5 -68v-117h-145v109q0 233 221 233q104 0 162.5 -55.5t58.5 -171.5v-18q0 -69 -20 -127t-50.5 -95.5t-67 -76.5t-68 -71t-54.5 -78t-27 -99h277v-148h-432z " />
<glyph unicode="&#xb3;" horiz-adv-x="569" d="M63 909v86h144v-92q0 -90 72 -90q71 0 71 90v121q0 45 -16 65.5t-55 20.5h-68v133h68q39 0 55 18.5t16 61.5v94q0 88 -71 88q-72 0 -72 -88v-74h-144v68q0 229 220 229q223 0 223 -229v-53q0 -147 -103 -182q103 -35 103 -187v-80q0 -231 -223 -231q-220 0 -220 231z" />
<glyph unicode="&#xb4;" horiz-adv-x="581" d="M121 1163l135 260h205l-199 -260h-141z" />
<glyph unicode="&#xb5;" horiz-adv-x="811" d="M84 -258v1319h209v-774q0 -73 24.5 -102t77.5 -29q54 0 88.5 41.5t34.5 103.5v760h209v-715q0 -223 23 -346h-199q-19 48 -25 129q-26 -68 -82.5 -110t-132.5 -42h-18v-235h-209z" />
<glyph unicode="&#xb6;" horiz-adv-x="970" d="M33 709v378q0 347 358 347h490v-1567h-170v1388h-140v-1388h-172v495h-8q-358 0 -358 347z" />
<glyph unicode="&#xb7;" horiz-adv-x="387" d="M88 561v311h209v-311h-209z" />
<glyph unicode="&#xb8;" horiz-adv-x="581" d="M80 -152h125q-3 -33 14 -48t60 -15q42 0 57.5 13t15.5 40q0 29 -25 40.5t-96 8.5v113h82v-68q103 0 148 -20t45 -80q0 -108 -225 -108q-103 0 -155 27.5t-46 96.5z" />
<glyph unicode="&#xb9;" horiz-adv-x="569" d="M156 1395v145h69q52 0 76.5 20t32.5 58h78v-918h-156v695h-100z" />
<glyph unicode="&#xba;" horiz-adv-x="567" d="M55 426v162h457v-162h-457zM55 922v295q0 123 57.5 181t172.5 58q114 0 170.5 -58t56.5 -181v-295q0 -123 -56.5 -181.5t-170.5 -58.5q-115 0 -172.5 58.5t-57.5 181.5zM213 905q0 -88 72 -88q71 0 71 88v328q0 88 -71 88q-72 0 -72 -88v-328z" />
<glyph unicode="&#xbb;" horiz-adv-x="856" d="M20 0l250 530l-250 531h205l250 -531l-250 -530h-205zM381 0l250 530l-250 531h205l250 -531l-250 -530h-205z" />
<glyph unicode="&#xbc;" horiz-adv-x="1185" d="M74 1210v146h69q52 0 76.5 20t32.5 58h78v-918h-156v694h-100zM213 0l612 1434h148l-613 -1434h-147zM662 182v121l247 615h187v-594h53v-142h-53v-182h-154v182h-280zM809 324h133v118q0 152 23 318q-43 -151 -101 -295z" />
<glyph unicode="&#xbd;" horiz-adv-x="1267" d="M74 1210v146h69q52 0 76.5 20t32.5 58h78v-918h-156v694h-100zM213 0l612 1434h148l-613 -1434h-147zM766 0v115q0 71 21.5 131.5t53 101t69 82.5t69 77t53 84.5t21.5 104.5v19q0 90 -72 90q-37 0 -53.5 -22t-16.5 -68v-117h-145v109q0 233 221 233q104 0 162.5 -55.5 t58.5 -171.5v-19q0 -82 -28 -147t-68.5 -109t-81.5 -84t-72.5 -92.5t-35.5 -114.5h276v-147h-432z" />
<glyph unicode="&#xbe;" horiz-adv-x="1267" d="M63 725v86h144v-92q0 -90 72 -90q71 0 71 90v121q0 45 -16 65.5t-55 20.5h-68v133h68q39 0 55 18.5t16 61.5v94q0 88 -71 88q-72 0 -72 -88v-74h-144v68q0 229 220 229q223 0 223 -229v-53q0 -148 -103 -183q103 -35 103 -186v-80q0 -231 -223 -231q-220 0 -220 231z M295 0l612 1434h148l-613 -1434h-147zM743 182v121l248 615h187v-594h53v-142h-53v-182h-154v182h-281zM891 324h133v118q0 152 23 318q-43 -151 -101 -295z" />
<glyph unicode="&#xbf;" horiz-adv-x="694" d="M33 45v51q0 76 15 136.5t38.5 99t52.5 71.5t58 64t52.5 65t38.5 86t15 117v64h131v-107q0 -106 -20 -179t-48 -113t-56 -77t-48 -95.5t-20 -143.5v-68q0 -137 112 -137q115 0 115 137v246h193v-217q0 -344 -314 -344q-154 0 -234.5 85.5t-80.5 258.5zM266 901v256h207 v-256h-207z" />
<glyph unicode="&#xc0;" horiz-adv-x="831" d="M14 0l248 1434h301l248 -1434h-236l-36 211h-275l-35 -211h-215zM195 1765h204l136 -260h-142zM297 408h209l-41 251q-47 307 -64 498q-18 -206 -63 -498z" />
<glyph unicode="&#xc1;" horiz-adv-x="831" d="M14 0l248 1434h301l248 -1434h-236l-36 211h-275l-35 -211h-215zM295 1505l135 260h205l-199 -260h-141zM297 408h209l-41 251q-47 307 -64 498q-18 -206 -63 -498z" />
<glyph unicode="&#xc2;" horiz-adv-x="831" d="M14 0l248 1434h301l248 -1434h-236l-36 211h-275l-35 -211h-215zM158 1505l176 260h166l176 -260h-152l-108 127l-107 -127h-151zM297 408h209l-41 251q-47 307 -64 498q-18 -206 -63 -498z" />
<glyph unicode="&#xc3;" horiz-adv-x="831" d="M14 0l248 1434h301l248 -1434h-236l-36 211h-275l-35 -211h-215zM150 1516q3 208 157 208q51 0 117 -30.5t96 -30.5q51 0 55 72h107q-3 -211 -158 -211q-50 0 -117 30.5t-96 30.5q-27 0 -39.5 -17.5t-15.5 -51.5h-106zM297 408h209l-41 251q-47 307 -64 498 q-18 -206 -63 -498z" />
<glyph unicode="&#xc4;" horiz-adv-x="831" d="M14 0l248 1434h301l248 -1434h-236l-36 211h-275l-35 -211h-215zM168 1528v207h188v-207h-188zM297 408h209l-41 251q-47 307 -64 498q-18 -206 -63 -498zM471 1528v207h191v-207h-191z" />
<glyph unicode="&#xc5;" horiz-adv-x="831" d="M14 0l248 1434h301l248 -1434h-236l-36 211h-275l-35 -211h-215zM248 1667q0 72 49.5 120t118.5 48t118.5 -48t49.5 -120q0 -71 -49.5 -119.5t-118.5 -48.5t-118.5 48.5t-49.5 119.5zM297 408h209l-41 251q-47 307 -64 498q-18 -206 -63 -498zM346 1667q0 -31 19.5 -51.5 t50.5 -20.5q30 0 49.5 20.5t19.5 51.5t-19.5 51.5t-49.5 20.5q-31 0 -50.5 -20.5t-19.5 -51.5z" />
<glyph unicode="&#xc6;" horiz-adv-x="1091" d="M6 0l377 1434h653v-205h-315v-379h274v-207h-274v-438h326v-205h-562v211h-209l-55 -211h-215zM328 408h157v309q0 95 13 446q-59 -311 -119 -551z" />
<glyph unicode="&#xc7;" horiz-adv-x="821" d="M66 356v721q0 379 348 379t348 -379v-182h-217v215q0 71 -29.5 106t-93.5 35t-92.5 -34.5t-28.5 -106.5v-786q0 -72 29 -107t92 -35q64 0 93.5 35t29.5 107v258h217v-226q0 -367 -328 -379v-45q103 0 148 -20t45 -80q0 -108 -226 -108q-103 0 -154.5 27.5t-45.5 96.5h125 q-3 -33 13.5 -48t59.5 -15q42 0 58 13t16 40q0 29 -25 40.5t-96 8.5v95q-286 28 -286 374z" />
<glyph unicode="&#xc8;" horiz-adv-x="698" d="M90 0v1434h553v-205h-317v-379h276v-207h-276v-438h327v-205h-563zM147 1765h205l135 -260h-141z" />
<glyph unicode="&#xc9;" horiz-adv-x="698" d="M90 0v1434h553v-205h-317v-379h276v-207h-276v-438h327v-205h-563zM248 1505l135 260h205l-199 -260h-141z" />
<glyph unicode="&#xca;" horiz-adv-x="698" d="M90 0v1434h553v-205h-317v-379h276v-207h-276v-438h327v-205h-563zM109 1505l176 260h166l176 -260h-152l-108 127l-107 -127h-151z" />
<glyph unicode="&#xcb;" horiz-adv-x="698" d="M90 0v1434h553v-205h-317v-379h276v-207h-276v-438h327v-205h-563zM121 1528v207h188v-207h-188zM424 1528v207h190v-207h-190z" />
<glyph unicode="&#xcc;" horiz-adv-x="409" d="M-14 1765h204l136 -260h-142zM88 0v1434h236v-1434h-236z" />
<glyph unicode="&#xcd;" horiz-adv-x="409" d="M86 1505l135 260h205l-199 -260h-141zM88 0v1434h236v-1434h-236z" />
<glyph unicode="&#xce;" horiz-adv-x="409" d="M-53 1505l176 260h166l176 -260h-152l-108 127l-107 -127h-151zM88 0v1434h236v-1434h-236z" />
<glyph unicode="&#xcf;" horiz-adv-x="409" d="M-41 1528v207h188v-207h-188zM88 0v1434h236v-1434h-236zM262 1528v207h191v-207h-191z" />
<glyph unicode="&#xd0;" horiz-adv-x="872" d="M25 662v172h67v600h334q371 0 371 -357v-721q0 -85 -21.5 -150t-55.5 -103.5t-84 -62t-100 -32t-110 -8.5h-334v662h-67zM328 205h88q78 0 111.5 33t33.5 112v733q0 79 -33.5 112.5t-111.5 33.5h-88v-395h127v-172h-127v-457z" />
<glyph unicode="&#xd1;" horiz-adv-x="927" d="M88 0v1434h309l181 -629q11 -44 77 -330q-12 300 -12 332v627h197v-1434h-277l-211 750q-14 51 -41.5 168t-38.5 159q15 -245 15 -332v-745h-199zM197 1516q3 208 157 208q50 0 117 -30.5t96 -30.5q52 0 56 72h106q-3 -211 -158 -211q-51 0 -117 30.5t-96 30.5 q-27 0 -39.5 -17.5t-15.5 -51.5h-106z" />
<glyph unicode="&#xd2;" horiz-adv-x="843" d="M66 356v721q0 379 356 379q358 0 358 -379v-721q0 -379 -358 -379q-356 0 -356 379zM201 1765h205l135 -260h-142zM301 324q0 -72 29 -107t92 -35q64 0 93.5 35t29.5 107v786q0 71 -29.5 106t-93.5 35t-92.5 -34.5t-28.5 -106.5v-786z" />
<glyph unicode="&#xd3;" horiz-adv-x="843" d="M66 356v721q0 379 356 379q358 0 358 -379v-721q0 -379 -358 -379q-356 0 -356 379zM301 324q0 -72 29 -107t92 -35q64 0 93.5 35t29.5 107v786q0 71 -29.5 106t-93.5 35t-92.5 -34.5t-28.5 -106.5v-786zM301 1505l135 260h205l-199 -260h-141z" />
<glyph unicode="&#xd4;" horiz-adv-x="843" d="M66 356v721q0 379 356 379q358 0 358 -379v-721q0 -379 -358 -379q-356 0 -356 379zM164 1505l176 260h166l176 -260h-152l-108 127l-107 -127h-151zM301 324q0 -72 29 -107t92 -35q64 0 93.5 35t29.5 107v786q0 71 -29.5 106t-93.5 35t-92.5 -34.5t-28.5 -106.5v-786z " />
<glyph unicode="&#xd5;" horiz-adv-x="843" d="M66 356v721q0 379 356 379q358 0 358 -379v-721q0 -379 -358 -379q-356 0 -356 379zM156 1516q3 208 157 208q51 0 117 -30.5t96 -30.5q52 0 56 72h106q-3 -211 -158 -211q-50 0 -117 30.5t-96 30.5q-27 0 -39.5 -17.5t-15.5 -51.5h-106zM301 324q0 -72 29 -107t92 -35 q64 0 93.5 35t29.5 107v786q0 71 -29.5 106t-93.5 35t-92.5 -34.5t-28.5 -106.5v-786z" />
<glyph unicode="&#xd6;" horiz-adv-x="843" d="M66 356v721q0 379 356 379q358 0 358 -379v-721q0 -379 -358 -379q-356 0 -356 379zM176 1528v207h189v-207h-189zM301 324q0 -72 29 -107t92 -35q64 0 93.5 35t29.5 107v786q0 71 -29.5 106t-93.5 35t-92.5 -34.5t-28.5 -106.5v-786zM479 1528v207h191v-207h-191z" />
<glyph unicode="&#xd7;" d="M61 514l205 201l-205 203l123 122l201 -206l203 206l123 -122l-209 -203l209 -201l-123 -123l-203 207l-201 -205z" />
<glyph unicode="&#xd8;" horiz-adv-x="843" d="M66 356v721q0 379 356 379q90 0 160 -24l28 81l156 -51l-47 -137q61 -92 61 -248v-721q0 -379 -358 -379q-90 0 -160 25l-26 -82l-156 51l47 135q-61 91 -61 250zM301 594l209 627q-30 30 -88 30q-64 0 -92.5 -34.5t-28.5 -106.5v-516zM334 211q29 -29 88 -29 q64 0 93.5 35t29.5 107v516z" />
<glyph unicode="&#xd9;" horiz-adv-x="851" d="M78 336v1098h235v-1117q0 -69 29.5 -102t93.5 -33q63 0 92 33t29 102v1117h219v-1098q0 -359 -348 -359q-350 0 -350 359zM205 1765h205l135 -260h-142z" />
<glyph unicode="&#xda;" horiz-adv-x="851" d="M78 336v1098h235v-1117q0 -69 29.5 -102t93.5 -33q63 0 92 33t29 102v1117h219v-1098q0 -359 -348 -359q-350 0 -350 359zM307 1505l135 260h205l-198 -260h-142z" />
<glyph unicode="&#xdb;" horiz-adv-x="851" d="M78 336v1098h235v-1117q0 -69 29.5 -102t93.5 -33q63 0 92 33t29 102v1117h219v-1098q0 -359 -348 -359q-350 0 -350 359zM166 1505l176 260h166l176 -260h-152l-108 127l-107 -127h-151z" />
<glyph unicode="&#xdc;" horiz-adv-x="851" d="M78 336v1098h235v-1117q0 -69 29.5 -102t93.5 -33q63 0 92 33t29 102v1117h219v-1098q0 -359 -348 -359q-350 0 -350 359zM178 1528v207h189v-207h-189zM481 1528v207h191v-207h-191z" />
<glyph unicode="&#xdd;" horiz-adv-x="835" d="M18 1434h242l102 -400q3 -13 16 -62.5t17 -66.5t13 -53.5t14 -65t10 -59.5q11 87 68 307l100 400h221l-282 -965v-469h-236v455zM297 1505l135 260h205l-199 -260h-141z" />
<glyph unicode="&#xde;" horiz-adv-x="823" d="M90 0v1434h236v-144h94q60 0 110 -8.5t100 -32t84 -62t55.5 -103.5t21.5 -150v-234q0 -358 -371 -358h-94v-342h-236zM326 549h84q78 0 111.5 32.5t33.5 110.5v248q0 79 -33.5 112t-111.5 33h-84v-536z" />
<glyph unicode="&#xdf;" horiz-adv-x="784" d="M84 0v1137q0 170 80.5 244.5t241.5 74.5t241 -74.5t80 -244.5v-62q0 -111 -38.5 -175t-121.5 -87q83 -22 121.5 -84.5t38.5 -173.5v-313q0 -134 -59.5 -196t-192.5 -62q-58 0 -108 16v178q29 -10 59 -10q53 0 72.5 24t19.5 82v338q0 121 -125 121h-26v160h26 q125 0 125 125v129q0 66 -26.5 98.5t-85.5 32.5t-86 -32.5t-27 -98.5v-1147h-209z" />
<glyph unicode="&#xe0;" horiz-adv-x="765" d="M49 254v16q0 78 24 138.5t62 96.5t84.5 63.5t93 47t84.5 38t62 45.5t24 63v12q0 133 -106 133q-109 0 -109 -133v-78h-194v52q0 171 77.5 253t233.5 82q154 0 230.5 -82t76.5 -253v-402q0 -223 23 -346h-199q-17 45 -24 129q-24 -68 -80.5 -110t-135.5 -42 q-107 0 -167 63.5t-60 213.5zM162 1423h205l135 -260h-142zM256 276q0 -69 25 -95.5t77 -26.5q55 0 90 41.5t35 103.5v223q-14 -7 -51.5 -25t-54.5 -27t-45 -28.5t-41 -38t-24 -48t-11 -64.5v-15z" />
<glyph unicode="&#xe1;" horiz-adv-x="765" d="M49 254v16q0 78 24 138.5t62 96.5t84.5 63.5t93 47t84.5 38t62 45.5t24 63v12q0 133 -106 133q-109 0 -109 -133v-78h-194v52q0 171 77.5 253t233.5 82q154 0 230.5 -82t76.5 -253v-402q0 -223 23 -346h-199q-17 45 -24 129q-24 -68 -80.5 -110t-135.5 -42 q-107 0 -167 63.5t-60 213.5zM256 276q0 -69 25 -95.5t77 -26.5q55 0 90 41.5t35 103.5v223q-14 -7 -51.5 -25t-54.5 -27t-45 -28.5t-41 -38t-24 -48t-11 -64.5v-15zM264 1163l135 260h205l-198 -260h-142z" />
<glyph unicode="&#xe2;" horiz-adv-x="765" d="M49 254v16q0 78 24 138.5t62 96.5t84.5 63.5t93 47t84.5 38t62 45.5t24 63v12q0 133 -106 133q-109 0 -109 -133v-78h-194v52q0 171 77.5 253t233.5 82q154 0 230.5 -82t76.5 -253v-402q0 -223 23 -346h-199q-17 45 -24 129q-24 -68 -80.5 -110t-135.5 -42 q-107 0 -167 63.5t-60 213.5zM123 1163l176 260h166l176 -260h-152l-108 127l-107 -127h-151zM256 276q0 -69 25 -95.5t77 -26.5q55 0 90 41.5t35 103.5v223q-14 -7 -51.5 -25t-54.5 -27t-45 -28.5t-41 -38t-24 -48t-11 -64.5v-15z" />
<glyph unicode="&#xe3;" horiz-adv-x="765" d="M49 254v16q0 78 24 138.5t62 96.5t84.5 63.5t93 47t84.5 38t62 45.5t24 63v12q0 133 -106 133q-109 0 -109 -133v-78h-194v52q0 171 77.5 253t233.5 82q154 0 230.5 -82t76.5 -253v-402q0 -223 23 -346h-199q-17 45 -24 129q-24 -68 -80.5 -110t-135.5 -42 q-107 0 -167 63.5t-60 213.5zM115 1174q3 208 157 208q50 0 117 -30.5t96 -30.5q52 0 56 72h106q-3 -211 -158 -211q-51 0 -117 30.5t-96 30.5q-27 0 -39.5 -17.5t-15.5 -51.5h-106zM256 276q0 -69 25 -95.5t77 -26.5q55 0 90 41.5t35 103.5v223q-14 -7 -51.5 -25t-54.5 -27 t-45 -28.5t-41 -38t-24 -48t-11 -64.5v-15z" />
<glyph unicode="&#xe4;" horiz-adv-x="765" d="M49 254v16q0 78 24 138.5t62 96.5t84.5 63.5t93 47t84.5 38t62 45.5t24 63v12q0 133 -106 133q-109 0 -109 -133v-78h-194v52q0 171 77.5 253t233.5 82q154 0 230.5 -82t76.5 -253v-402q0 -223 23 -346h-199q-17 45 -24 129q-24 -68 -80.5 -110t-135.5 -42 q-107 0 -167 63.5t-60 213.5zM135 1186v207h189v-207h-189zM256 276q0 -69 25 -95.5t77 -26.5q55 0 90 41.5t35 103.5v223q-14 -7 -51.5 -25t-54.5 -27t-45 -28.5t-41 -38t-24 -48t-11 -64.5v-15zM438 1186v207h191v-207h-191z" />
<glyph unicode="&#xe5;" horiz-adv-x="765" d="M49 254v16q0 78 24 138.5t62 96.5t84.5 63.5t93 47t84.5 38t62 45.5t24 63v12q0 133 -106 133q-109 0 -109 -133v-78h-194v52q0 171 77.5 253t233.5 82q154 0 230.5 -82t76.5 -253v-402q0 -223 23 -346h-199q-17 45 -24 129q-24 -68 -80.5 -110t-135.5 -42 q-107 0 -167 63.5t-60 213.5zM213 1325q0 72 49.5 120t118.5 48t118.5 -48t49.5 -120q0 -71 -49.5 -119.5t-118.5 -48.5t-118.5 48.5t-49.5 119.5zM256 276q0 -69 25 -95.5t77 -26.5q55 0 90 41.5t35 103.5v223q-14 -7 -51.5 -25t-54.5 -27t-45 -28.5t-41 -38t-24 -48 t-11 -64.5v-15zM311 1325q0 -31 19.5 -51.5t50.5 -20.5t50.5 20.5t19.5 51.5t-19.5 51.5t-50.5 20.5t-50.5 -20.5t-19.5 -51.5z" />
<glyph unicode="&#xe6;" horiz-adv-x="1171" d="M49 254v16q0 78 24 138.5t62 96.5t84.5 63.5t93 47t84.5 38t62 45.5t24 63v12q0 66 -25 98.5t-83 32.5t-82.5 -32t-24.5 -99v-78h-194v49q0 338 288 338q162 0 228 -100q72 100 231 100q291 0 291 -338v-276h-420v-182q0 -66 27 -98.5t86 -32.5q115 0 115 131v69h192v-41 q0 -338 -315 -338q-236 0 -295 189q-18 -82 -77.5 -135.5t-148.5 -53.5q-107 0 -167 63.5t-60 213.5zM256 276q0 -69 25 -95.5t77 -26.5q55 0 90 41.5t35 103.5v223q-14 -7 -51.5 -25t-54.5 -27t-45 -28.5t-41 -38t-24 -48t-11 -64.5v-15zM692 639h228v135q0 131 -115 131 q-59 0 -86 -32.5t-27 -98.5v-135z" />
<glyph unicode="&#xe7;" horiz-adv-x="747" d="M66 315v430q0 338 313 338t313 -338v-86h-192v115q0 131 -113 131q-60 0 -87.5 -32.5t-27.5 -98.5v-487q0 -66 27.5 -98.5t87.5 -32.5q113 0 113 131v135h192v-107q0 -326 -293 -338v-45q103 0 148 -20t45 -80q0 -108 -225 -108q-103 0 -155 27.5t-46 96.5h125 q-3 -33 14 -48t60 -15q42 0 57.5 13t15.5 40q0 29 -25 40.5t-96 8.5v95q-251 28 -251 333z" />
<glyph unicode="&#xe8;" horiz-adv-x="751" d="M66 315v430q0 338 313 338t313 -338v-276h-420v-182q0 -66 27.5 -98.5t87.5 -32.5q113 0 113 131v69h192v-41q0 -338 -313 -338t-313 338zM160 1423h205l135 -260h-142zM272 639h228v135q0 131 -113 131q-60 0 -87.5 -32.5t-27.5 -98.5v-135z" />
<glyph unicode="&#xe9;" horiz-adv-x="751" d="M66 315v430q0 338 313 338t313 -338v-276h-420v-182q0 -66 27.5 -98.5t87.5 -32.5q113 0 113 131v69h192v-41q0 -338 -313 -338t-313 338zM260 1163l135 260h205l-199 -260h-141zM272 639h228v135q0 131 -113 131q-60 0 -87.5 -32.5t-27.5 -98.5v-135z" />
<glyph unicode="&#xea;" horiz-adv-x="751" d="M66 315v430q0 338 313 338t313 -338v-276h-420v-182q0 -66 27.5 -98.5t87.5 -32.5q113 0 113 131v69h192v-41q0 -338 -313 -338t-313 338zM121 1163l176 260h166l176 -260h-152l-108 127l-107 -127h-151zM272 639h228v135q0 131 -113 131q-60 0 -87.5 -32.5t-27.5 -98.5 v-135z" />
<glyph unicode="&#xeb;" horiz-adv-x="751" d="M66 315v430q0 338 313 338t313 -338v-276h-420v-182q0 -66 27.5 -98.5t87.5 -32.5q113 0 113 131v69h192v-41q0 -338 -313 -338t-313 338zM133 1186v207h189v-207h-189zM272 639h228v135q0 131 -113 131q-60 0 -87.5 -32.5t-27.5 -98.5v-135zM436 1186v207h191v-207h-191 z" />
<glyph unicode="&#xec;" horiz-adv-x="376" d="M-33 1423h205l135 -260h-141zM84 0v1061h209v-1061h-209z" />
<glyph unicode="&#xed;" horiz-adv-x="376" d="M70 1163l135 260h205l-199 -260h-141zM84 0v1061h209v-1061h-209z" />
<glyph unicode="&#xee;" horiz-adv-x="376" d="M-70 1163l176 260h166l177 -260h-152l-109 127l-106 -127h-152zM84 0v1061h209v-1061h-209z" />
<glyph unicode="&#xef;" horiz-adv-x="376" d="M-57 1186v207h188v-207h-188zM84 0v1061h209v-1061h-209zM246 1186v207h190v-207h-190z" />
<glyph unicode="&#xf0;" horiz-adv-x="782" d="M66 315v473q0 159 59.5 227t165.5 68q71 0 125.5 -35.5t83.5 -93.5v111q0 93 -27 143l-86 -86l-45 45l82 82q-40 19 -100 19h-72l35 166h67q130 0 207 -45l45 45h94l-86 -84q93 -93 93 -295v-740q0 -338 -320 -338q-321 0 -321 338zM272 287q0 -66 27.5 -98.5t87.5 -32.5 q113 0 113 131v473q0 62 -35.5 103.5t-89.5 41.5q-53 0 -78 -29.5t-25 -101.5v-487z" />
<glyph unicode="&#xf1;" horiz-adv-x="800" d="M84 0v1061h195v-143q23 73 80.5 119t140.5 46q227 0 227 -295v-788h-209v774q0 73 -24.5 102t-77.5 29q-54 0 -88.5 -41.5t-34.5 -103.5v-760h-209zM133 1174q3 208 158 208q51 0 117 -30.5t96 -30.5q51 0 55 72h107q-3 -211 -158 -211q-50 0 -117 30.5t-96 30.5 q-27 0 -39.5 -17.5t-15.5 -51.5h-107z" />
<glyph unicode="&#xf2;" d="M66 315v430q0 338 321 338q320 0 320 -338v-430q0 -338 -320 -338q-321 0 -321 338zM164 1423h205l135 -260h-142zM272 287q0 -66 27.5 -98.5t87.5 -32.5q113 0 113 131v487q0 131 -113 131q-60 0 -87.5 -32.5t-27.5 -98.5v-487z" />
<glyph unicode="&#xf3;" d="M66 315v430q0 338 321 338q320 0 320 -338v-430q0 -338 -320 -338q-321 0 -321 338zM266 1163l135 260h205l-198 -260h-142zM272 287q0 -66 27.5 -98.5t87.5 -32.5q113 0 113 131v487q0 131 -113 131q-60 0 -87.5 -32.5t-27.5 -98.5v-487z" />
<glyph unicode="&#xf4;" d="M66 315v430q0 338 321 338q320 0 320 -338v-430q0 -338 -320 -338q-321 0 -321 338zM127 1163l176 260h166l176 -260h-151l-109 127l-106 -127h-152zM272 287q0 -66 27.5 -98.5t87.5 -32.5q113 0 113 131v487q0 131 -113 131q-60 0 -87.5 -32.5t-27.5 -98.5v-487z" />
<glyph unicode="&#xf5;" d="M66 315v430q0 338 321 338q320 0 320 -338v-430q0 -338 -320 -338q-321 0 -321 338zM119 1174q3 208 157 208q50 0 117 -30.5t96 -30.5q52 0 56 72h106q-3 -211 -157 -211q-50 0 -117 30.5t-96 30.5q-49 0 -56 -69h-106zM272 287q0 -66 27.5 -98.5t87.5 -32.5 q113 0 113 131v487q0 131 -113 131q-60 0 -87.5 -32.5t-27.5 -98.5v-487z" />
<glyph unicode="&#xf6;" d="M66 315v430q0 338 321 338q320 0 320 -338v-430q0 -338 -320 -338q-321 0 -321 338zM139 1186v207h189v-207h-189zM272 287q0 -66 27.5 -98.5t87.5 -32.5q113 0 113 131v487q0 131 -113 131q-60 0 -87.5 -32.5t-27.5 -98.5v-487zM442 1186v207h191v-207h-191z" />
<glyph unicode="&#xf7;" d="M66 629v174h641v-174h-641zM254 418q0 55 37.5 92t93.5 37q57 0 94 -36.5t37 -92.5q0 -57 -37 -95t-94 -38q-56 0 -93.5 38t-37.5 95zM254 1008q0 55 37.5 92t93.5 37q57 0 94 -36.5t37 -92.5q0 -57 -37 -95.5t-94 -38.5q-56 0 -93.5 38.5t-37.5 95.5z" />
<glyph unicode="&#xf8;" d="M63 -29l54 125q-51 77 -51 219v430q0 338 321 338q83 0 145 -24l41 90l136 -59l-56 -127q54 -82 54 -218v-430q0 -338 -320 -338q-85 0 -149 25l-39 -90zM272 434l187 451q-26 20 -72 20q-60 0 -87.5 -32.5t-27.5 -98.5v-340zM311 174q27 -18 76 -18q113 0 113 131v340z " />
<glyph unicode="&#xf9;" horiz-adv-x="800" d="M76 272v789h207v-774q0 -73 24.5 -102t77.5 -29q54 0 89.5 41.5t35.5 103.5v760h207v-715q0 -137 4.5 -206t19.5 -140h-198q-19 49 -25 127q-26 -68 -82 -109t-135 -41q-106 0 -165.5 68t-59.5 227zM180 1423h205l135 -260h-141z" />
<glyph unicode="&#xfa;" horiz-adv-x="800" d="M76 272v789h207v-774q0 -73 24.5 -102t77.5 -29q54 0 89.5 41.5t35.5 103.5v760h207v-715q0 -137 4.5 -206t19.5 -140h-198q-19 49 -25 127q-26 -68 -82 -109t-135 -41q-106 0 -165.5 68t-59.5 227zM281 1163l135 260h205l-199 -260h-141z" />
<glyph unicode="&#xfb;" horiz-adv-x="800" d="M76 272v789h207v-774q0 -73 24.5 -102t77.5 -29q54 0 89.5 41.5t35.5 103.5v760h207v-715q0 -137 4.5 -206t19.5 -140h-198q-19 49 -25 127q-26 -68 -82 -109t-135 -41q-106 0 -165.5 68t-59.5 227zM141 1163l176 260h166l176 -260h-151l-109 127l-106 -127h-152z" />
<glyph unicode="&#xfc;" horiz-adv-x="800" d="M76 272v789h207v-774q0 -73 24.5 -102t77.5 -29q54 0 89.5 41.5t35.5 103.5v760h207v-715q0 -137 4.5 -206t19.5 -140h-198q-19 49 -25 127q-26 -68 -82 -109t-135 -41q-106 0 -165.5 68t-59.5 227zM154 1186v207h188v-207h-188zM457 1186v207h190v-207h-190z" />
<glyph unicode="&#xfd;" horiz-adv-x="731" d="M8 1061h215l99 -492q39 -194 51 -344q25 204 53 344l98 492h197l-242 -1133q-23 -106 -83.5 -155t-192.5 -49q-74 0 -119 10v164q45 -11 82 -11q34 0 52.5 14t27.5 48q6 25 -4 71zM244 1163l135 260h205l-199 -260h-141z" />
<glyph unicode="&#xfe;" horiz-adv-x="792" d="M84 -258v1692h209v-480q29 58 82.5 93.5t124.5 35.5q227 0 227 -295v-516q0 -295 -227 -295q-71 0 -124.5 35t-82.5 94v-364h-209zM293 301q0 -62 34.5 -103.5t88.5 -41.5q53 0 77.5 29t24.5 102v487q0 73 -24.5 102t-77.5 29q-54 0 -88.5 -41.5t-34.5 -103.5v-459z" />
<glyph unicode="&#xff;" horiz-adv-x="731" d="M8 1061h215l99 -492q39 -194 51 -344q25 204 53 344l98 492h197l-242 -1133q-23 -106 -83.5 -155t-192.5 -49q-74 0 -119 10v164q45 -11 82 -11q34 0 52.5 14t27.5 48q6 25 -4 71zM127 1186v207h188v-207h-188zM430 1186v207h191v-207h-191z" />
<glyph unicode="&#x152;" horiz-adv-x="1150" d="M76 356v721q0 357 368 357h652v-205h-316v-379h275v-207h-275v-438h326v-205h-662q-368 0 -368 356zM311 350q0 -79 33.5 -112t112.5 -33h88v1024h-88q-78 0 -112 -33.5t-34 -112.5v-733z" />
<glyph unicode="&#x153;" horiz-adv-x="1187" d="M66 315v430q0 338 301 338q167 0 235 -116q65 116 236 116q290 0 290 -338v-276h-419v-182q0 -66 26.5 -98.5t85.5 -32.5q115 0 115 131v69h192v-41q0 -338 -290 -338q-171 0 -236 115q-68 -115 -235 -115q-301 0 -301 338zM272 287q0 -131 115 -131q113 0 113 131v487 q0 131 -113 131q-115 0 -115 -131v-487zM709 639h227v135q0 131 -115 131q-59 0 -85.5 -32.5t-26.5 -98.5v-135z" />
<glyph unicode="&#x178;" horiz-adv-x="835" d="M18 1434h242l102 -400q3 -13 16 -62.5t17 -66.5t13 -53.5t14 -65t10 -59.5q11 87 68 307l100 400h221l-282 -965v-469h-236v455zM172 1528v207h188v-207h-188zM475 1528v207h191v-207h-191z" />
<glyph unicode="&#x2c6;" horiz-adv-x="581" d="M33 1163l176 260h166l176 -260h-152l-108 127l-107 -127h-151z" />
<glyph unicode="&#x2dc;" horiz-adv-x="581" d="M25 1174q3 208 157 208q50 0 117 -30.5t96 -30.5q52 0 56 72h106q-3 -211 -158 -211q-51 0 -117 30.5t-96 30.5q-27 0 -39.5 -17.5t-15.5 -51.5h-106z" />
<glyph unicode="&#x2000;" horiz-adv-x="917" />
<glyph unicode="&#x2001;" horiz-adv-x="1835" />
<glyph unicode="&#x2002;" horiz-adv-x="917" />
<glyph unicode="&#x2003;" horiz-adv-x="1835" />
<glyph unicode="&#x2004;" horiz-adv-x="611" />
<glyph unicode="&#x2005;" horiz-adv-x="458" />
<glyph unicode="&#x2006;" horiz-adv-x="305" />
<glyph unicode="&#x2007;" horiz-adv-x="305" />
<glyph unicode="&#x2008;" horiz-adv-x="229" />
<glyph unicode="&#x2009;" horiz-adv-x="367" />
<glyph unicode="&#x200a;" horiz-adv-x="101" />
<glyph unicode="&#x2010;" horiz-adv-x="581" d="M59 438v180h463v-180h-463z" />
<glyph unicode="&#x2011;" horiz-adv-x="581" d="M59 438v180h463v-180h-463z" />
<glyph unicode="&#x2012;" horiz-adv-x="581" d="M59 438v180h463v-180h-463z" />
<glyph unicode="&#x2013;" horiz-adv-x="1024" d="M0 440v181h1024v-181h-1024z" />
<glyph unicode="&#x2014;" horiz-adv-x="2048" d="M0 440v181h2048v-181h-2048z" />
<glyph unicode="&#x2018;" horiz-adv-x="387" d="M90 901v311l201 222l18 -15l-119 -207h109v-311h-209z" />
<glyph unicode="&#x2019;" horiz-adv-x="387" d="M78 915l119 207h-109v312h209v-312l-201 -221z" />
<glyph unicode="&#x201a;" horiz-adv-x="387" d="M78 -207l119 207h-109v311h209v-311l-201 -221z" />
<glyph unicode="&#x201c;" horiz-adv-x="727" d="M90 901v311l201 222l18 -15l-119 -207h109v-311h-209zM430 901v311l201 222l18 -15l-119 -207h109v-311h-209z" />
<glyph unicode="&#x201d;" horiz-adv-x="727" d="M78 915l119 207h-109v312h209v-312l-201 -221zM418 915l119 207h-109v312h209v-312l-201 -221z" />
<glyph unicode="&#x201e;" horiz-adv-x="727" d="M78 -207l119 207h-109v311h209v-311l-201 -221zM418 -207l119 207h-109v311h209v-311l-201 -221z" />
<glyph unicode="&#x2022;" horiz-adv-x="714" d="M92 717q0 109 77 187.5t187 78.5q109 0 187 -78.5t78 -187.5q0 -108 -78 -185t-187 -77q-110 0 -187 76.5t-77 185.5z" />
<glyph unicode="&#x2026;" horiz-adv-x="1069" d="M88 0v311h209v-311h-209zM428 0v311h209v-311h-209zM770 0v311h209v-311h-209z" />
<glyph unicode="&#x202f;" horiz-adv-x="367" />
<glyph unicode="&#x2039;" horiz-adv-x="495" d="M20 530l250 531h205l-250 -531l250 -530h-205z" />
<glyph unicode="&#x203a;" horiz-adv-x="495" d="M20 0l250 530l-250 531h205l250 -531l-250 -530h-205z" />
<glyph unicode="&#x205f;" horiz-adv-x="458" />
<glyph unicode="&#x20ac;" d="M0 565v88h63v127h-63v88h66v250q0 338 321 338q320 0 320 -338v-110h-207v139q0 131 -113 131q-60 0 -87.5 -32.5t-27.5 -98.5v-279h435v-88h-435v-127h435v-88h-435v-278q0 -66 27.5 -98.5t87.5 -32.5q113 0 113 131v139h207v-111q0 -338 -320 -338q-321 0 -321 338v250 h-66z" />
<glyph unicode="&#x2122;" horiz-adv-x="1036" d="M0 1313v121h360v-121h-110v-627h-139v627h-111zM420 686v748h205l43 -242q16 -85 30 -231q12 126 29 231l43 242h207v-748h-135v283q0 75 10 305q-23 -157 -53 -305l-51 -283h-117l-53 283q-33 178 -52 305q1 -33 6 -138t5 -167v-283h-117z" />
<glyph unicode="&#x25fc;" horiz-adv-x="1064" d="M0 0v1065h1065v-1065h-1065z" />
</font>
</defs>
</svg>
